<?xml version="1.0" standalone="no"?><!DOCTYPE svg PUBLIC "-//W3C//DTD SVG 1.1//EN" "http://www.w3.org/Graphics/SVG/1.1/DTD/svg11.dtd"><svg t="1533125281490" class="icon" style="" viewBox="0 0 1024 1024" version="1.1" xmlns="http://www.w3.org/2000/svg" p-id="1089" xmlns:xlink="http://www.w3.org/1999/xlink" width="200" height="200"><defs><style type="text/css"></style></defs><path d="M886.74 335.55l-4.84-2.8a19 19 0 0 0-26 6.94l-23.16 40C774.88 228.08 618.56 125.08 441.9 149.11c-163 22.17-291.67 154.12-310.25 317.61C106.65 686.65 278 873 492.92 873a362.58 362.58 0 0 0 265.34-115c12-12.77 3.19-33.64-14.31-33.64a32 32 0 0 0-22.84 9.4C650 806 544.86 844.69 431.65 823.7c-132.22-24.51-235.28-132.12-255.11-265.12C146.93 360 300 189.27 492.92 189.27c136 0 252.08 84.86 298.43 204.48l-39.18-22.67a21.82 21.82 0 0 0-21.86 37.78l83.1 48.09a21.82 21.82 0 0 0 29.82-8 22 22 0 0 0 1.06-2.1l49.38-85.34a19 19 0 0 0-6.93-25.96z" p-id="1090"></path></svg>